<svg width="28" height="28" viewBox="0 0 28 28" fill="none" xmlns="http://www.w3.org/2000/svg">
<g id="fluent:door-20-regular">
<path id="Vector" d="M9.8001 15.4C10.1714 15.4 10.5275 15.2525 10.79 14.99C11.0526 14.7274 11.2001 14.3714 11.2001 14C11.2001 13.6287 11.0526 13.2727 10.79 13.0101C10.5275 12.7475 10.1714 12.6 9.8001 12.6C9.42879 12.6 9.0727 12.7475 8.81015 13.0101C8.5476 13.2727 8.4001 13.6287 8.4001 14C8.4001 14.3714 8.5476 14.7274 8.81015 14.99C9.0727 15.2525 9.42879 15.4 9.8001 15.4ZM5.6001 5.60005C5.6001 4.85744 5.8951 4.14525 6.4202 3.62015C6.9453 3.09505 7.65749 2.80005 8.4001 2.80005H19.6001C20.3427 2.80005 21.0549 3.09505 21.58 3.62015C22.1051 4.14525 22.4001 4.85744 22.4001 5.60005V22.4C22.4001 23.1427 22.1051 23.8548 21.58 24.3799C21.0549 24.905 20.3427 25.2 19.6001 25.2H8.4001C7.65749 25.2 6.9453 24.905 6.4202 24.3799C5.8951 23.8548 5.6001 23.1427 5.6001 22.4V5.60005ZM8.4001 23.8H19.6001C19.9714 23.8 20.3275 23.6525 20.59 23.39C20.8526 23.1274 21.0001 22.7714 21.0001 22.4V5.60005C21.0001 5.22875 20.8526 4.87265 20.59 4.6101C20.3275 4.34755 19.9714 4.20005 19.6001 4.20005H8.4001C8.02879 4.20005 7.6727 4.34755 7.41015 4.6101C7.1476 4.87265 7.0001 5.22875 7.0001 5.60005V22.4C7.0001 22.7714 7.1476 23.1274 7.41015 23.39C7.6727 23.6525 8.02879 23.8 8.4001 23.8Z" fill="#585858"/>
</g>
</svg>
