<svg width="287" height="57" viewBox="0 0 287 57" fill="none" xmlns="http://www.w3.org/2000/svg">
<path d="M24.5656 9.63281L9.27266 54H0.0265656L19.2922 2.8125H25.1984L24.5656 9.63281ZM37.3625 54L22.0344 9.63281L21.3664 2.8125H27.3078L46.6438 54H37.3625ZM36.6242 35.0156V42.0117H8.78047V35.0156H36.6242ZM74.5367 7.62891L84.5914 7.62891C87.6148 7.62891 90.3922 8.13281 92.9234 9.14062C95.4781 10.1484 97.7047 11.5781 99.6031 13.4297C101.502 15.2578 102.978 17.4609 104.033 20.0391C105.088 22.5937 105.615 25.4414 105.615 28.582C105.615 31.6758 105.088 34.5 104.033 37.0547C102.978 39.6094 101.502 41.8125 99.6031 43.6641C97.7047 45.4922 95.4781 46.8984 92.9234 47.8828C90.3922 48.8672 87.6148 49.3594 84.5914 49.3594H74.5367C71.5367 49.3594 68.7594 48.8672 66.2047 47.8828C63.65 46.8984 61.4117 45.4922 59.4898 43.6641C57.5914 41.8359 56.1148 39.6562 55.0602 37.125C54.0289 34.5703 53.5133 31.7461 53.5133 28.6523C53.5133 25.5117 54.0289 22.6641 55.0602 20.1094C56.1148 17.5312 57.5914 15.3164 59.4898 13.4648C61.4117 11.5898 63.65 10.1484 66.2047 9.14062C68.7594 8.13281 71.5367 7.62891 74.5367 7.62891ZM74.5367 14.6602C71.9117 14.6602 69.65 15.2227 67.7516 16.3477C65.8531 17.4492 64.3883 19.043 63.357 21.1289C62.3492 23.2148 61.8453 25.7227 61.8453 28.6523C61.8453 30.8086 62.1383 32.7305 62.7242 34.418C63.3102 36.1055 64.1539 37.5352 65.2555 38.707C66.357 39.8789 67.693 40.7812 69.2633 41.4141C70.8336 42.0469 72.5914 42.3633 74.5367 42.3633H84.6617C87.2633 42.3633 89.5016 41.8125 91.3766 40.7109C93.2516 39.5859 94.693 37.9922 95.7008 35.9297C96.732 33.8672 97.2477 31.418 97.2477 28.582C97.2477 26.4023 96.9547 24.457 96.3688 22.7461C95.8063 21.0117 94.9742 19.5469 93.8727 18.3516C92.7945 17.1562 91.482 16.2422 89.9352 15.6094C88.3883 14.9766 86.6305 14.6602 84.6617 14.6602L74.5367 14.6602ZM83.818 0.703125V56.1094H75.3453V0.703125H83.818ZM125.668 39.6211L148.379 2.8125H157.203V54H148.379V17.1562L125.668 54H116.879V2.8125H125.668V39.6211ZM171.42 2.8125H180.28V47.0039H196.1V2.8125H204.889V47.0039H220.569V2.8125L229.358 2.8125V54H171.42V2.8125ZM263.966 9.63281L248.673 54H239.427L258.692 2.8125H264.598L263.966 9.63281ZM276.762 54L261.434 9.63281L260.766 2.8125H266.708L286.044 54H276.762ZM276.024 35.0156V42.0117H248.18V35.0156H276.024Z" fill="#F55A5A"/>
<path d="M24.5656 9.63281L27.4019 10.6104C27.48 10.3838 27.5307 10.1487 27.5528 9.90997L24.5656 9.63281ZM9.27266 54V57C10.5527 57 11.6918 56.1878 12.1089 54.9776L9.27266 54ZM0.0265656 54L-2.78115 52.9432C-3.12797 53.8647 -3.00056 54.8977 -2.44024 55.7073C-1.87992 56.5169 -0.958012 57 0.0265656 57V54ZM19.2922 2.8125V-0.1875C18.043 -0.1875 16.9245 0.586604 16.4845 1.75575L19.2922 2.8125ZM25.1984 2.8125L28.1856 3.08966C28.2636 2.24942 27.9841 1.41519 27.4156 0.791545C26.8471 0.167897 26.0423 -0.1875 25.1984 -0.1875V2.8125ZM37.3625 54L34.527 54.9796C34.9447 56.1888 36.0832 57 37.3625 57V54ZM22.0344 9.63281L19.0487 9.92523C19.0716 10.1594 19.122 10.3901 19.1988 10.6124L22.0344 9.63281ZM21.3664 2.8125V-0.1875C20.5199 -0.1875 19.7128 0.17014 19.1441 0.797215C18.5754 1.42429 18.2982 2.26243 18.3807 3.10492L21.3664 2.8125ZM27.3078 2.8125L30.1143 1.75237C29.6733 0.584992 28.5557 -0.1875 27.3078 -0.1875V2.8125ZM46.6438 54V57C47.629 57 48.5514 56.5163 49.1116 55.7058C49.6718 54.8954 49.7983 53.8615 49.4502 52.9399L46.6438 54ZM36.6242 35.0156H39.6242C39.6242 33.3588 38.2811 32.0156 36.6242 32.0156V35.0156ZM36.6242 42.0117V45.0117C38.2811 45.0117 39.6242 43.6686 39.6242 42.0117H36.6242ZM8.78047 42.0117H5.78047C5.78047 43.6686 7.12362 45.0117 8.78047 45.0117V42.0117ZM8.78047 35.0156V32.0156C7.12362 32.0156 5.78047 33.3588 5.78047 35.0156H8.78047ZM21.7294 8.65519L6.43642 53.0224L12.1089 54.9776L27.4019 10.6104L21.7294 8.65519ZM9.27266 51H0.0265656V57H9.27266V51ZM2.83428 55.0567L22.0999 3.86925L16.4845 1.75575L-2.78115 52.9432L2.83428 55.0567ZM19.2922 5.8125H25.1984V-0.1875H19.2922V5.8125ZM22.2113 2.53534L21.5785 9.35565L27.5528 9.90997L28.1856 3.08966L22.2113 2.53534ZM40.198 53.0204L24.8699 8.65318L19.1988 10.6124L34.527 54.9796L40.198 53.0204ZM25.0201 9.3404L24.3521 2.52008L18.3807 3.10492L19.0487 9.92523L25.0201 9.3404ZM21.3664 5.8125H27.3078V-0.1875H21.3664V5.8125ZM24.5014 3.87263L43.8373 55.0601L49.4502 52.9399L30.1143 1.75237L24.5014 3.87263ZM46.6438 51H37.3625L37.3625 57H46.6438L46.6438 51ZM33.6242 35.0156V42.0117H39.6242V35.0156H33.6242ZM36.6242 39.0117H8.78047V45.0117H36.6242V39.0117ZM11.7805 42.0117V35.0156H5.78047V42.0117H11.7805ZM8.78047 38.0156H36.6242V32.0156H8.78047V38.0156ZM92.9234 9.14062L91.8137 11.9278L91.8225 11.9313L92.9234 9.14062ZM99.6031 13.4297L97.5085 15.5774C97.513 15.5818 97.5176 15.5862 97.5222 15.5906L99.6031 13.4297ZM104.033 20.0391L101.256 21.175L101.26 21.1839L104.033 20.0391ZM99.6031 43.6641L101.684 45.825C101.689 45.8206 101.693 45.8162 101.698 45.8117L99.6031 43.6641ZM92.9234 47.8828L91.8448 45.0834L91.8361 45.0868L92.9234 47.8828ZM59.4898 43.6641L57.4089 45.825C57.4133 45.8293 57.4178 45.8335 57.4222 45.8377L59.4898 43.6641ZM55.0602 37.125L52.2783 38.248C52.2824 38.2583 52.2867 38.2686 52.2909 38.2788L55.0602 37.125ZM55.0602 20.1094L52.2835 18.9735L52.2783 18.9864L55.0602 20.1094ZM59.4898 13.4648L61.5845 15.6125L61.5848 15.6122L59.4898 13.4648ZM67.7516 16.3477L69.2572 18.9425C69.2651 18.9379 69.2731 18.9332 69.281 18.9285L67.7516 16.3477ZM63.357 21.1289L60.6677 19.7994C60.6637 19.8075 60.6597 19.8156 60.6558 19.8238L63.357 21.1289ZM91.3766 40.7109L92.8962 43.2976C92.9042 43.2929 92.9121 43.2882 92.9201 43.2834L91.3766 40.7109ZM95.7008 35.9297L93.0175 34.588C93.0134 34.5962 93.0094 34.6044 93.0054 34.6126L95.7008 35.9297ZM96.3688 22.7461L93.5151 23.6716C93.5201 23.6871 93.5253 23.7026 93.5306 23.7181L96.3688 22.7461ZM93.8727 18.3516L91.645 20.3609C91.6521 20.3688 91.6593 20.3767 91.6666 20.3846L93.8727 18.3516ZM83.818 0.703125H86.818C86.818 -0.95373 85.4748 -2.29688 83.818 -2.29688V0.703125ZM83.818 56.1094V59.1094C85.4748 59.1094 86.818 57.7662 86.818 56.1094H83.818ZM75.3453 56.1094H72.3453C72.3453 57.7662 73.6885 59.1094 75.3453 59.1094V56.1094ZM75.3453 0.703125V-2.29688C73.6885 -2.29688 72.3453 -0.95373 72.3453 0.703125H75.3453ZM74.5367 10.6289L84.5914 10.6289V4.62891H74.5367V10.6289ZM84.5914 10.6289C87.2765 10.6289 89.6723 11.0752 91.8137 11.9278L94.0332 6.35342C91.1121 5.19039 87.9532 4.62891 84.5914 4.62891V10.6289ZM91.8225 11.9313C94.02 12.7982 95.9055 14.0139 97.5085 15.5774L101.698 11.282C99.5039 9.14231 96.9362 7.49865 94.0244 6.34993L91.8225 11.9313ZM97.5222 15.5906C99.103 17.1129 100.35 18.9608 101.256 21.175L106.809 18.9032C105.606 15.9611 103.9 13.4027 101.684 11.2687L97.5222 15.5906ZM101.26 21.1839C102.146 23.3293 102.615 25.7809 102.615 28.582H108.615C108.615 25.1019 108.029 21.8582 106.806 18.8943L101.26 21.1839ZM102.615 28.582C102.615 31.3298 102.148 33.7592 101.26 35.9099L106.806 38.1995C108.027 35.2408 108.615 32.0217 108.615 28.582H102.615ZM101.26 35.9099C100.354 38.1039 99.1027 39.9616 97.5085 41.5164L101.698 45.8117C103.9 43.6634 105.602 41.1148 106.806 38.1995L101.26 35.9099ZM97.5222 41.5031C95.9231 43.0429 94.0409 44.2372 91.8448 45.0834L94.0021 50.6822C96.9153 49.5597 99.4862 47.9414 101.684 45.825L97.5222 41.5031ZM91.8361 45.0868C89.6886 45.9219 87.2849 46.3594 84.5914 46.3594V52.3594C87.9448 52.3594 91.0958 51.8124 94.0108 50.6788L91.8361 45.0868ZM84.5914 46.3594H74.5367V52.3594H84.5914V46.3594ZM74.5367 46.3594C71.8702 46.3594 69.4623 45.923 67.2833 45.0834L65.126 50.6822C68.0564 51.8113 71.2033 52.3594 74.5367 52.3594V46.3594ZM67.2833 45.0834C65.0841 44.236 63.1847 43.0383 61.5575 41.4904L57.4222 45.8377C59.6387 47.9461 62.2159 49.5608 65.126 50.6822L67.2833 45.0834ZM61.5708 41.5031C59.9803 39.9716 58.7326 38.1388 57.8294 35.9712L52.2909 38.2788C53.4971 41.1737 55.2025 43.7003 57.4089 45.825L61.5708 41.5031ZM57.8421 36.002C56.9715 33.8455 56.5133 31.4084 56.5133 28.6523H50.5133C50.5133 32.0838 51.0863 35.2951 52.2783 38.248L57.8421 36.002ZM56.5133 28.6523C56.5133 25.8431 56.9736 23.3837 57.8421 21.2323L52.2783 18.9864C51.0842 21.9444 50.5133 25.1803 50.5133 28.6523H56.5133ZM57.8368 21.2453C58.7439 19.028 59.995 17.1627 61.5845 15.6125L57.3952 11.3172C55.1878 13.4701 53.4858 16.0345 52.2835 18.9735L57.8368 21.2453ZM61.5848 15.6122C63.2148 14.022 65.1131 12.7963 67.3056 11.9313L65.1038 6.34993C62.187 7.5006 59.6087 9.1577 57.3949 11.3175L61.5848 15.6122ZM67.3056 11.9313C69.4786 11.0741 71.8786 10.6289 74.5367 10.6289V4.62891C71.1948 4.62891 68.0401 5.19156 65.1038 6.34993L67.3056 11.9313ZM74.5367 11.6602C71.4762 11.6602 68.6645 12.3194 66.2222 13.7668L69.281 18.9285C70.6355 18.1259 72.3473 17.6602 74.5367 17.6602V11.6602ZM66.2459 13.7528C63.8057 15.1688 61.944 17.2179 60.6677 19.7994L66.0463 22.4584C66.8326 20.868 67.9005 19.7297 69.2572 18.9425L66.2459 13.7528ZM60.6558 19.8238C59.4064 22.4097 58.8453 25.3868 58.8453 28.6523H64.8453C64.8453 26.0585 65.292 24.0199 66.0583 22.434L60.6558 19.8238ZM58.8453 28.6523C58.8453 31.0764 59.1743 33.3403 59.8902 35.402L65.5582 33.4339C65.1022 32.1207 64.8453 30.5408 64.8453 28.6523H58.8453ZM59.8902 35.402C60.5991 37.4437 61.6486 39.2501 63.0696 40.7618L67.4414 36.6523C66.6592 35.8202 66.0212 34.7673 65.5582 33.4339L59.8902 35.402ZM63.0696 40.7618C64.4847 42.2672 66.1899 43.41 68.142 44.1966L70.3846 38.6315C69.196 38.1525 68.2294 37.4906 67.4414 36.6523L63.0696 40.7618ZM68.142 44.1966C70.1177 44.9928 72.2638 45.3633 74.5367 45.3633V39.3633C72.919 39.3633 71.5495 39.1009 70.3846 38.6315L68.142 44.1966ZM74.5367 45.3633H84.6617V39.3633H74.5367V45.3633ZM84.6617 45.3633C87.6923 45.3633 90.4775 44.7186 92.8962 43.2976L89.8569 38.1243C88.5256 38.9064 86.8342 39.3633 84.6617 39.3633V45.3633ZM92.9201 43.2834C95.3177 41.8448 97.1472 39.803 98.3962 37.2468L93.0054 34.6126C92.2388 36.1814 91.1854 37.3271 89.8331 38.1385L92.9201 43.2834ZM98.3841 37.2713C99.666 34.7075 100.248 31.7786 100.248 28.582H94.2477C94.2477 31.0574 93.7981 33.0269 93.0175 34.588L98.3841 37.2713ZM100.248 28.582C100.248 26.1374 99.9194 23.8546 99.2069 21.7741L93.5306 23.7181C93.99 25.0595 94.2477 26.6673 94.2477 28.582H100.248ZM99.2224 21.8206C98.5428 19.725 97.5073 17.8687 96.0787 16.3185L91.6666 20.3846C92.4411 21.225 93.0697 22.2985 93.5151 23.6716L99.2224 21.8206ZM96.1004 16.3423C94.7089 14.7995 93.0184 13.6294 91.0711 12.8327L88.7993 18.386C89.9456 18.855 90.8802 19.513 91.645 20.3609L96.1004 16.3423ZM91.0711 12.8327C89.1055 12.0286 86.9518 11.6602 84.6617 11.6602V17.6602C86.3091 17.6602 87.6711 17.9245 88.7993 18.386L91.0711 12.8327ZM84.6617 11.6602L74.5367 11.6602V17.6602L84.6617 17.6602V11.6602ZM80.818 0.703125V56.1094H86.818V0.703125H80.818ZM83.818 53.1094H75.3453V59.1094H83.818V53.1094ZM78.3453 56.1094V0.703125H72.3453V56.1094H78.3453ZM75.3453 3.70312H83.818V-2.29688H75.3453V3.70312ZM125.668 39.6211H122.668C122.668 40.9626 123.559 42.1411 124.849 42.5072C126.14 42.8733 127.517 42.3381 128.221 41.1964L125.668 39.6211ZM148.379 2.8125V-0.1875C147.338 -0.1875 146.372 0.351678 145.826 1.23722L148.379 2.8125ZM157.203 2.8125L160.203 2.8125C160.203 1.15565 158.86 -0.1875 157.203 -0.1875V2.8125ZM157.203 54V57C158.86 57 160.203 55.6569 160.203 54H157.203ZM148.379 54H145.379C145.379 55.6569 146.722 57 148.379 57V54ZM148.379 17.1562H151.379C151.379 15.8145 150.488 14.6359 149.197 14.27C147.906 13.904 146.529 14.4398 145.825 15.5821L148.379 17.1562ZM125.668 54V57C126.709 57 127.676 56.4604 128.222 55.5742L125.668 54ZM116.879 54H113.879C113.879 55.6569 115.222 57 116.879 57V54ZM116.879 2.8125V-0.1875C115.222 -0.1875 113.879 1.15565 113.879 2.8125H116.879ZM125.668 2.8125L128.668 2.8125C128.668 1.15565 127.325 -0.1875 125.668 -0.1875V2.8125ZM128.221 41.1964L150.932 4.38778L145.826 1.23722L123.115 38.0458L128.221 41.1964ZM148.379 5.8125H157.203V-0.1875H148.379V5.8125ZM154.203 2.8125V54H160.203V2.8125L154.203 2.8125ZM157.203 51H148.379V57H157.203V51ZM151.379 54V17.1562H145.379V54H151.379ZM145.825 15.5821L123.114 52.4258L128.222 55.5742L150.933 18.7304L145.825 15.5821ZM125.668 51H116.879V57H125.668V51ZM119.879 54V2.8125H113.879V54H119.879ZM116.879 5.8125H125.668V-0.1875H116.879V5.8125ZM122.668 2.8125V39.6211H128.668V2.8125L122.668 2.8125ZM171.42 2.8125V-0.1875C169.763 -0.1875 168.42 1.15565 168.42 2.8125H171.42ZM180.28 2.8125H183.28C183.28 1.15565 181.937 -0.1875 180.28 -0.1875V2.8125ZM180.28 47.0039H177.28C177.28 48.6608 178.623 50.0039 180.28 50.0039V47.0039ZM196.1 47.0039V50.0039C197.757 50.0039 199.1 48.6608 199.1 47.0039H196.1ZM196.1 2.8125V-0.1875C194.443 -0.1875 193.1 1.15565 193.1 2.8125H196.1ZM204.889 2.8125H207.889C207.889 1.15565 206.546 -0.1875 204.889 -0.1875V2.8125ZM204.889 47.0039H201.889C201.889 48.6608 203.232 50.0039 204.889 50.0039V47.0039ZM220.569 47.0039V50.0039C222.226 50.0039 223.569 48.6608 223.569 47.0039H220.569ZM220.569 2.8125V-0.1875C218.912 -0.1875 217.569 1.15565 217.569 2.8125H220.569ZM229.358 2.8125H232.358C232.358 1.15565 231.015 -0.1875 229.358 -0.1875V2.8125ZM229.358 54V57C231.015 57 232.358 55.6569 232.358 54H229.358ZM171.42 54H168.42C168.42 55.6569 169.763 57 171.42 57V54ZM171.42 5.8125H180.28V-0.1875H171.42V5.8125ZM177.28 2.8125V47.0039H183.28V2.8125H177.28ZM180.28 50.0039H196.1V44.0039H180.28V50.0039ZM199.1 47.0039V2.8125H193.1V47.0039H199.1ZM196.1 5.8125H204.889V-0.1875H196.1V5.8125ZM201.889 2.8125V47.0039H207.889V2.8125H201.889ZM204.889 50.0039H220.569V44.0039H204.889V50.0039ZM223.569 47.0039V2.8125L217.569 2.8125V47.0039H223.569ZM220.569 5.8125H229.358V-0.1875L220.569 -0.1875V5.8125ZM226.358 2.8125V54H232.358V2.8125H226.358ZM229.358 51L171.42 51V57H229.358V51ZM174.42 54V2.8125H168.42V54H174.42ZM263.966 9.63281L266.802 10.6104C266.88 10.3838 266.931 10.1487 266.953 9.90997L263.966 9.63281ZM248.673 54V57C249.953 57 251.092 56.1878 251.509 54.9776L248.673 54ZM239.427 54L236.619 52.9432C236.272 53.8647 236.399 54.8977 236.96 55.7073C237.52 56.5169 238.442 57 239.427 57V54ZM258.692 2.8125V-0.1875C257.443 -0.1875 256.324 0.586604 255.884 1.75575L258.692 2.8125ZM264.598 2.8125L267.586 3.08966C267.664 2.24942 267.384 1.41519 266.816 0.791545C266.247 0.167897 265.442 -0.1875 264.598 -0.1875V2.8125ZM276.763 54L273.927 54.9796C274.345 56.1888 275.483 57 276.763 57V54ZM261.434 9.63281L258.449 9.92523C258.472 10.1594 258.522 10.3901 258.599 10.6124L261.434 9.63281ZM260.766 2.8125V-0.1875C259.92 -0.1875 259.113 0.17014 258.544 0.797215C257.975 1.42429 257.698 2.26243 257.781 3.10492L260.766 2.8125ZM266.708 2.8125L269.514 1.75237C269.073 0.584992 267.956 -0.1875 266.708 -0.1875V2.8125ZM286.044 54V57C287.029 57 287.951 56.5163 288.512 55.7058C289.072 54.8954 289.198 53.8615 288.85 52.9399L286.044 54ZM276.024 35.0156H279.024C279.024 33.3588 277.681 32.0156 276.024 32.0156V35.0156ZM276.024 42.0117V45.0117C277.681 45.0117 279.024 43.6686 279.024 42.0117H276.024ZM248.18 42.0117H245.18C245.18 43.6686 246.524 45.0117 248.18 45.0117V42.0117ZM248.18 35.0156V32.0156C246.524 32.0156 245.18 33.3588 245.18 35.0156H248.18ZM261.129 8.65519L245.836 53.0224L251.509 54.9776L266.802 10.6104L261.129 8.65519ZM248.673 51H239.427V57H248.673V51ZM242.234 55.0567L261.5 3.86925L255.884 1.75575L236.619 52.9432L242.234 55.0567ZM258.692 5.8125H264.598V-0.1875H258.692V5.8125ZM261.611 2.53534L260.978 9.35565L266.953 9.90997L267.586 3.08966L261.611 2.53534ZM279.598 53.0204L264.27 8.65318L258.599 10.6124L273.927 54.9796L279.598 53.0204ZM264.42 9.3404L263.752 2.52008L257.781 3.10492L258.449 9.92523L264.42 9.3404ZM260.766 5.8125H266.708V-0.1875H260.766V5.8125ZM263.901 3.87263L283.237 55.0601L288.85 52.9399L269.514 1.75237L263.901 3.87263ZM286.044 51H276.763V57H286.044V51ZM273.024 35.0156V42.0117H279.024V35.0156H273.024ZM276.024 39.0117H248.18V45.0117H276.024V39.0117ZM251.18 42.0117V35.0156H245.18V42.0117H251.18ZM248.18 38.0156H276.024V32.0156H248.18V38.0156Z" fill="#585858"/>
</svg>
