<svg width="28" height="28" viewBox="0 0 28 28" fill="none" xmlns="http://www.w3.org/2000/svg">
<g id="star">
<path id="Vector" d="M10.6784 6.30934C12.1566 3.65868 12.8951 2.33334 13.9999 2.33334C15.1048 2.33334 15.8433 3.65868 17.3214 6.30934L17.7041 6.99534C18.1241 7.74901 18.3341 8.12584 18.6608 8.37434C18.9874 8.62284 19.3958 8.71501 20.2124 8.89934L20.9544 9.06734C23.8244 9.71718 25.2583 10.0415 25.6001 11.1393C25.9408 12.236 24.9631 13.3805 23.0066 15.6683L22.5003 16.2598C21.9449 16.9097 21.6661 17.2352 21.5413 17.6365C21.4164 18.039 21.4584 18.473 21.5424 19.3398L21.6194 20.1297C21.9146 23.1828 22.0628 24.7088 21.1691 25.3867C20.2754 26.0657 18.9314 25.4462 16.2458 24.2095L15.5493 23.8898C14.7863 23.5375 14.4048 23.3625 13.9999 23.3625C13.5951 23.3625 13.2136 23.5375 12.4494 23.8898L11.7553 24.2095C9.06845 25.4462 7.72445 26.0645 6.83195 25.3878C5.93712 24.7088 6.08528 23.1828 6.38045 20.1297L6.45745 19.341C6.54145 18.473 6.58345 18.039 6.45745 17.6377C6.33378 17.2352 6.05495 16.9097 5.49962 16.261L4.99328 15.6683C3.03678 13.3817 2.05912 12.2372 2.39978 11.1393C2.74162 10.0415 4.17662 9.71601 7.04662 9.06734L7.78862 8.89934C8.60412 8.71501 9.01128 8.62284 9.33912 8.37434C9.66578 8.12584 9.87578 7.74901 10.2958 6.99534L10.6784 6.30934Z" stroke="#252525" stroke-width="1.5"/>
</g>
</svg>
